<?xml version="1.0" encoding="UTF-8"?>
<svg id="Layer_1" xmlns="http://www.w3.org/2000/svg" version="1.1" xmlns:xlink="http://www.w3.org/1999/xlink" viewBox="0 0 322 321">
  <!-- Generator: Adobe Illustrator 29.0.1, SVG Export Plug-In . SVG Version: 2.1.0 Build 192)  -->
  <defs>
    <style>
      .st0 {
        fill: none;
      }

      .st1 {
        clip-path: url(#clippath);
      }

      .st2 {
        fill: #2da6dc;
      }
    </style>
    <clipPath id="clippath">
      <rect class="st0" x="4" y="5.1" width="314.1" height="310" rx="115.2" ry="115.2" transform="translate(-65.9 152.8) rotate(-43)"/>
    </clipPath>
  </defs>
  <g class="st1">
    <g>
      <path class="st2" d="M46.1,267.2c1.5,1.6,3.9,1.6,5.4.2,1.6-1.4,1.6-3.9.2-5.4-1.5-1.6-3.9-1.6-5.4-.2-1.6,1.4-1.6,3.9-.2,5.4Z"/>
      <path class="st2" d="M88.7,299.3c1.4,1.6,3.9,1.6,5.4.2,1.6-1.4,1.6-3.9.2-5.4-1.4-1.6-3.9-1.6-5.4-.2-1.6,1.4-1.6,3.9-.2,5.4Z"/>
      <path class="st2" d="M139.6,314.9c1.5,1.6,3.9,1.6,5.4.2,1.6-1.4,1.6-3.9.2-5.4-1.5-1.6-3.9-1.6-5.4-.2-1.6,1.4-1.6,3.9-.2,5.4Z"/>
      <path class="st2" d="M192.8,312.2c1.5,1.6,3.9,1.6,5.4.2,1.6-1.4,1.6-3.9.2-5.4-1.5-1.6-3.9-1.6-5.4-.2-1.6,1.4-1.6,3.9-.2,5.4Z"/>
      <path class="st2" d="M74.6,34c1.5,1.6,3.9,1.6,5.4.2,1.6-1.4,1.6-3.9.2-5.4-1.4-1.6-3.9-1.6-5.4-.2-1.6,1.4-1.6,3.9-.2,5.4Z"/>
      <path class="st2" d="M241.8,291.4c1.5,1.6,3.9,1.6,5.4.2,1.6-1.4,1.6-3.9.2-5.4-1.5-1.6-3.9-1.6-5.4-.2-1.6,1.4-1.6,3.9-.2,5.4Z"/>
      <path class="st2" d="M35.7,70.3c1.5,1.6,3.9,1.6,5.4.2,1.6-1.4,1.6-3.9.2-5.4-1.5-1.6-3.9-1.6-5.4-.2-1.6,1.4-1.6,3.9-.2,5.4Z"/>
      <path class="st2" d="M280.7,255.1c1.5,1.6,3.9,1.6,5.4.2,1.6-1.4,1.6-3.9.2-5.4-1.5-1.6-3.9-1.6-5.4-.2-1.6,1.4-1.6,3.9-.2,5.4Z"/>
      <path class="st2" d="M11.6,117.7c1.5,1.6,3.9,1.6,5.4.2s1.6-3.9.2-5.4c-1.5-1.6-3.9-1.6-5.4-.2-1.6,1.4-1.6,3.9-.2,5.4Z"/>
      <path class="st2" d="M304.9,207.7c1.4,1.6,3.9,1.6,5.4.2,1.6-1.4,1.6-3.9.2-5.4-1.4-1.6-3.9-1.6-5.4-.2-1.6,1.4-1.6,3.9-.2,5.4Z"/>
      <path class="st2" d="M5.1,170.6c1.5,1.6,3.9,1.6,5.4.2,1.6-1.4,1.6-3.9.2-5.4-1.5-1.6-3.9-1.6-5.4-.2-1.6,1.4-1.6,3.9-.2,5.4Z"/>
      <path class="st2" d="M311.3,154.9c1.5,1.6,3.9,1.6,5.4.2,1.6-1.4,1.6-3.9.2-5.4-1.5-1.6-3.9-1.6-5.4-.2-1.6,1.4-1.6,3.9-.2,5.4Z"/>
      <path class="st2" d="M17.1,222.5c1.5,1.6,3.9,1.6,5.4.2,1.6-1.4,1.6-3.9.2-5.4s-3.9-1.6-5.4-.2c-1.6,1.4-1.6,3.9-.2,5.4Z"/>
      <path class="st2" d="M299.3,102.9c1.5,1.6,3.9,1.6,5.4.2,1.6-1.4,1.6-3.9.2-5.4-1.5-1.6-3.9-1.6-5.4-.2-1.6,1.4-1.6,3.9-.2,5.4Z"/>
    </g>
  </g>
</svg>